<?xml version="1.0" standalone="no"?>
<!DOCTYPE svg PUBLIC "-//W3C//DTD SVG 20010904//EN"
 "http://www.w3.org/TR/2001/REC-SVG-20010904/DTD/svg10.dtd">
<svg version="1.0" xmlns="http://www.w3.org/2000/svg"
 width="1024.000000pt" height="596.000000pt" viewBox="0 0 1024.000000 596.000000"
 preserveAspectRatio="xMidYMid meet">

<g transform="translate(0.000000,596.000000) scale(0.100000,-0.100000)"
fill="#000000" stroke="none">
<path d="M0 2980 l0 -2980 5120 0 5120 0 0 2980 0 2980 -5120 0 -5120 0 0
-2980z m2835 2295 c20 -30 38 -55 40 -55 3 0 21 25 40 55 25 38 42 55 56 55
21 0 21 -1 3 -27 -10 -16 -30 -46 -46 -67 -15 -21 -28 -43 -28 -47 0 -4 20
-37 45 -72 25 -36 45 -68 45 -71 0 -3 -9 -6 -19 -6 -13 0 -32 20 -56 60 -20
33 -38 60 -40 60 -1 0 -20 -27 -41 -60 -29 -44 -45 -60 -62 -60 -21 0 -19 5
29 75 l52 74 -40 58 c-57 83 -57 83 -33 83 14 0 31 -17 55 -55z m370 41 c44
-19 65 -61 65 -131 0 -105 -44 -145 -160 -145 l-60 0 0 145 0 145 60 0 c33 0
76 -6 95 -14z m285 -6 c0 -11 -7 -20 -15 -20 -8 0 -15 9 -15 20 0 11 7 20 15
20 8 0 15 -9 15 -20z m-1012 -73 c15 -12 17 -197 2 -197 -6 0 -10 30 -10 69 0
94 -11 121 -49 121 -49 0 -61 -21 -61 -111 0 -64 -3 -79 -15 -79 -12 0 -15 18
-15 105 0 63 4 105 10 105 6 0 10 -7 10 -15 0 -17 16 -20 25 -4 17 26 73 30
103 6z m220 -5 c7 -9 12 -47 12 -93 0 -53 4 -79 13 -82 9 -4 9 -7 -1 -18 -10
-11 -15 -10 -28 3 -14 14 -20 14 -50 2 -41 -17 -79 -5 -96 30 -16 36 10 72 59
80 62 11 73 16 73 35 0 42 -69 58 -92 21 -12 -18 -38 -28 -38 -14 0 16 24 46
43 54 30 13 89 2 105 -18z m722 8 c0 -11 -6 -20 -14 -20 -33 0 -46 -30 -46
-106 0 -59 -3 -74 -15 -74 -12 0 -15 18 -15 105 0 63 4 105 10 105 6 0 10 -7
10 -16 0 -13 5 -12 26 5 33 26 44 26 44 1z m282 -10 c28 -34 33 -103 12 -147
-24 -48 -77 -66 -118 -39 l-26 16 0 -55 c0 -42 -3 -55 -15 -55 -13 0 -15 23
-15 150 0 127 2 150 15 150 8 0 15 -7 15 -16 0 -13 5 -12 27 6 33 26 79 21
105 -10z m-1461 10 c16 -9 19 -22 19 -95 0 -69 3 -86 18 -94 15 -9 15 -10 -5
-11 -12 0 -25 5 -28 10 -4 6 -16 8 -28 4 l-22 -6 23 24 c12 13 22 37 22 52 0
23 -4 27 -20 23 -11 -3 -20 -1 -20 3 0 5 9 12 20 15 11 3 20 15 20 26 0 10 -9
24 -20 31 -37 23 -18 39 21 18z m1249 -95 c0 -87 -3 -105 -15 -105 -12 0 -15
18 -15 105 0 87 3 105 15 105 12 0 15 -18 15 -105z m438 -190 c67 -50 99 -56
149 -26 17 11 34 17 37 14 16 -17 2 -36 -41 -55 -39 -17 -51 -19 -84 -9 -21 7
-59 30 -84 51 -26 22 -50 40 -56 40 -5 0 -9 7 -9 15 0 26 26 17 88 -30z
m-1366 -353 c19 -19 19 -605 0 -624 -10 -10 -150 -13 -703 -13 -672 0 -691 1
-705 19 -11 16 -14 73 -14 297 0 153 4 289 9 303 6 13 18 26 28 29 10 3 323 4
695 3 541 -1 680 -4 690 -14z m1500 0 c19 -19 19 -605 0 -624 -19 -19 -1405
-19 -1424 0 -10 10 -14 82 -16 307 -3 286 -2 295 18 315 20 20 25 20 715 18
553 -2 697 -6 707 -16z m-906 -1419 c3 -24 10 -43 14 -43 4 0 12 25 19 55 7
30 16 55 21 55 4 0 13 -23 20 -50 16 -65 27 -70 35 -18 7 39 24 85 25 65 0
-20 -33 -137 -40 -137 -4 0 -13 25 -20 55 -7 30 -16 55 -20 55 -4 0 -12 -25
-19 -55 -7 -30 -16 -55 -21 -55 -6 0 -40 115 -40 137 1 22 20 -27 26 -64z
m271 -40 c-2 -21 -4 -4 -4 37 0 41 2 58 4 38 2 -21 2 -55 0 -75z m834 97 c10
-6 19 -15 19 -21 0 -6 -7 -3 -16 5 -19 20 -38 20 -53 2 -14 -16 -1 -28 44 -43
22 -7 30 -16 30 -33 0 -13 -7 -26 -15 -28 -13 -4 -13 -3 -2 11 18 21 8 35 -30
45 -43 11 -59 39 -34 58 24 17 31 17 57 4z m166 -97 c-2 -21 -4 -4 -4 37 0 41
2 58 4 38 2 -21 2 -55 0 -75z m418 71 c8 11 15 23 15 28 0 4 5 8 11 8 6 0 1
-16 -11 -35 l-22 -35 22 -37 22 -38 -29 33 -28 33 -19 -31 c-10 -17 -20 -29
-23 -26 -3 3 5 19 17 36 l22 30 -22 38 -22 37 27 -30 c25 -29 26 -29 40 -11z
m142 28 c22 -14 33 -60 22 -89 -13 -35 -26 -43 -66 -43 l-33 0 0 70 0 70 33 0
c17 0 37 -4 44 -8z m464 -28 l22 -36 20 36 c12 20 25 36 29 36 5 0 -3 -18 -17
-40 -14 -22 -26 -54 -26 -72 l-2 -33 -4 29 c-3 16 -16 46 -29 65 -23 34 -29
51 -20 51 2 0 14 -16 27 -36z m500 26 c10 -6 19 -15 19 -21 0 -6 -7 -3 -16 5
-17 18 -32 20 -53 7 -19 -12 -6 -41 18 -41 28 0 63 -32 56 -52 -13 -32 -95
-30 -95 3 0 6 7 3 16 -5 17 -18 24 -19 48 -10 31 12 18 40 -24 53 -44 13 -54
42 -22 60 22 13 29 13 53 1z m166 -97 c-2 -21 -4 -4 -4 37 0 41 2 58 4 38 2
-21 2 -55 0 -75z m461 100 c-33 -4 -38 -8 -38 -29 0 -21 5 -24 38 -26 l37 -1
-37 -4 c-34 -4 -37 -7 -41 -41 -2 -20 -4 -4 -5 36 l-2 72 43 -2 42 -1 -37 -4z
m539 -45 c-2 -13 -4 -5 -4 17 -1 22 1 32 4 23 2 -10 2 -28 0 -40z m-3118 4
c-12 -5 -11 -79 1 -85 6 -3 5 -4 -2 -3 -7 1 -15 23 -18 48 -7 57 -3 72 15 55
7 -7 9 -13 4 -15z m3070 0 c-13 -5 -11 -66 4 -81 10 -11 9 -13 -3 -9 -9 3 -17
22 -20 50 -7 57 -3 72 15 55 7 -7 9 -13 4 -15z m-3698 -2 c32 -18 23 -40 -16
-40 -37 0 -44 -10 -21 -29 11 -9 20 -10 35 -1 12 6 21 8 21 6 0 -15 -41 -26
-60 -16 -26 14 -27 65 -2 79 21 13 20 13 43 1z m240 0 c36 -20 17 -90 -25 -90
-12 0 -36 33 -36 50 0 17 24 50 36 50 3 0 14 -5 25 -10z m116 -3 c3 -4 12 -2
18 3 26 22 45 0 43 -49 l-1 -46 -4 40 c-3 22 -8 44 -13 49 -15 15 -39 -13 -43
-52 l-4 -37 -1 42 c-1 23 -7 45 -12 48 -18 11 -39 -15 -43 -53 -3 -31 -4 -28
-5 14 -2 51 -2 51 28 49 17 -1 33 -5 37 -8z m154 3 c32 -18 23 -40 -16 -40
-23 0 -35 -5 -35 -14 0 -19 30 -29 46 -15 9 7 14 8 14 1 0 -16 -30 -23 -51
-12 -20 11 -27 64 -9 75 6 3 7 -1 4 -9 -5 -13 1 -16 27 -16 l34 1 -24 19 c-25
22 -21 26 10 10z m213 -6 c9 -8 16 -24 16 -34 0 -21 -25 -50 -43 -50 -6 0 -1
7 11 16 12 8 22 24 22 34 0 10 -10 26 -22 34 -12 9 -17 16 -11 16 6 0 19 -7
27 -16z m277 6 c36 -20 17 -90 -25 -90 -12 0 -36 33 -36 50 0 17 24 50 36 50
3 0 14 -5 25 -10z m143 4 c10 -4 16 -18 16 -38 0 -18 5 -37 12 -44 13 -13 8
-15 -14 -7 -9 4 -13 18 -12 40 4 40 -7 50 -38 35 -22 -11 -22 -10 -4 4 23 18
20 18 40 10z m122 -49 c1 -41 0 -43 -3 -10 -2 22 -8 44 -13 49 -15 15 -39 -13
-43 -52 -3 -31 -4 -29 -5 13 l-2 51 33 -1 c32 0 32 -1 33 -50z m102 43 c8 -11
22 -88 16 -88 -1 0 -10 3 -18 6 -13 5 -14 9 -4 21 9 11 9 16 -1 23 -11 6 -11
9 0 13 11 4 12 7 1 18 -10 11 -16 11 -32 1 -11 -7 -20 -8 -20 -3 0 20 43 26
58 9z m379 -65 c-2 -16 -4 -3 -4 27 0 30 2 43 4 28 2 -16 2 -40 0 -55z m95 66
c41 -22 9 -100 -35 -83 -11 4 -17 -2 -20 -18 -2 -13 -5 6 -6 42 -1 61 1 66 21
67 11 1 29 -2 40 -8z m402 -5 c9 -8 16 -24 16 -34 0 -21 -25 -50 -43 -50 -6 0
-1 7 11 16 12 8 22 24 22 34 0 10 -10 26 -22 34 -12 9 -17 16 -11 16 6 0 19
-7 27 -16z m116 -32 c0 -47 0 -48 -32 -47 -19 0 -33 6 -35 15 -4 13 -3 13 6 0
17 -24 45 1 49 44 5 52 12 45 12 -12z m54 37 c4 6 12 11 19 11 6 0 3 -6 -7
-13 -10 -8 -22 -31 -26 -53 -8 -38 -8 -38 -9 16 0 34 3 50 8 41 6 -9 11 -10
15 -2z m277 1 c36 -20 17 -90 -25 -90 -12 0 -36 33 -36 50 0 17 24 50 36 50 3
0 14 -5 25 -10z m143 4 c10 -4 16 -18 16 -38 0 -18 5 -37 12 -44 13 -13 8 -15
-14 -7 -9 4 -13 18 -12 40 4 40 -7 50 -38 35 -22 -11 -22 -10 -4 4 23 18 20
18 40 10z m119 -3 c4 0 6 -22 5 -48 l-1 -48 -6 45 c-6 42 -10 46 -40 42 -6 -1
-12 -21 -14 -44 -3 -43 -4 -43 -5 7 -2 50 -1 51 26 49 15 -1 30 -2 35 -3z m91
3 c10 -4 16 -18 16 -38 0 -18 5 -37 12 -44 13 -13 8 -15 -14 -7 -9 4 -13 18
-12 40 4 40 -7 50 -38 35 -22 -11 -22 -10 -4 4 23 18 20 18 40 10z m282 -2 c6
-4 13 -25 15 -48 4 -37 2 -40 -16 -36 -11 3 -14 7 -7 10 16 5 16 32 0 32 -9 0
-8 3 2 10 12 7 12 12 2 22 -10 10 -17 10 -32 0 -11 -7 -20 -8 -20 -3 0 17 37
26 56 13z m70 -79 c21 -8 36 10 44 54 l8 38 1 -50 c1 -48 0 -50 -27 -52 -39
-2 -52 14 -50 61 l1 41 4 -43 c3 -26 10 -45 19 -49z m242 75 c23 -23 13 -38
-23 -38 -38 0 -44 -10 -19 -31 13 -11 19 -10 37 1 20 12 21 12 8 -3 -7 -10
-19 -17 -27 -17 -19 0 -44 29 -44 50 0 21 25 50 44 50 6 0 17 -5 24 -12z
m-3538 -18 c-8 -14 -8 -26 0 -40 12 -23 30 -26 50 -7 12 10 12 9 1 -5 -19 -25
-38 -22 -56 6 -13 19 -14 29 -5 45 6 12 13 21 16 21 2 0 0 -9 -6 -20z m575
-19 c0 -22 -3 -37 -7 -34 -14 8 -8 73 6 73 1 0 1 -18 1 -39z m1520 0 c0 -22
-3 -37 -7 -34 -14 8 -8 73 6 73 1 0 1 -18 1 -39z m1295 19 c-8 -14 -8 -26 0
-40 12 -23 30 -26 50 -7 12 10 12 9 1 -5 -19 -25 -38 -22 -56 6 -13 19 -14 29
-5 45 6 12 13 21 16 21 2 0 0 -9 -6 -20z m-1803 -52 c-2 -13 -4 -3 -4 22 0 25
2 35 4 23 2 -13 2 -33 0 -45z m276 35 c-7 -2 -19 -2 -25 0 -7 3 -2 5 12 5 14
0 19 -2 13 -5z m-853 -13 c-13 -9 -12 -12 4 -25 21 -16 10 -21 -13 -6 -16 10
-8 41 11 41 9 0 9 -3 -2 -10z m210 0 c-13 -9 -12 -12 4 -25 21 -16 10 -21 -13
-6 -16 10 -8 41 11 41 9 0 9 -3 -2 -10z m1480 0 c-13 -9 -12 -12 4 -25 21 -16
10 -21 -13 -6 -16 10 -8 41 11 41 9 0 9 -3 -2 -10z m210 0 c-13 -9 -12 -12 4
-25 21 -16 10 -21 -13 -6 -16 10 -8 41 11 41 9 0 9 -3 -2 -10z m271 -4 c-10
-11 -8 -17 6 -25 10 -6 13 -11 8 -11 -17 0 -34 21 -28 36 3 8 10 14 15 14 6 0
6 -6 -1 -14z m-2410 -27 c9 0 10 -2 2 -5 -15 -7 -53 13 -53 28 0 6 8 4 18 -5
10 -10 25 -17 33 -18z m-3000 -439 c10 -6 19 -20 19 -30 0 -24 -13 -26 -30 -5
-7 8 -23 15 -37 15 -37 0 -25 -32 17 -45 50 -14 60 -23 60 -50 0 -28 -34 -55
-70 -55 -31 0 -70 26 -70 46 0 19 24 18 40 -2 16 -19 65 -15 65 6 0 9 -17 20
-39 28 -49 16 -66 29 -66 53 0 38 68 62 111 39z m229 -80 c0 -73 -3 -90 -15
-90 -12 0 -15 17 -15 90 0 73 3 90 15 90 12 0 15 -17 15 -90z m636 18 c38
-114 37 -108 16 -108 -11 0 -22 9 -25 20 -4 15 -14 20 -37 20 -23 0 -33 -5
-37 -20 -3 -12 -14 -20 -25 -20 -12 0 -18 5 -16 13 59 164 61 168 81 165 15
-2 26 -20 43 -70z m84 57 c0 -8 -7 -15 -15 -15 -8 0 -15 7 -15 15 0 8 7 15 15
15 8 0 15 -7 15 -15z m250 -74 l0 -89 -50 0 c-42 -1 -53 3 -66 23 -29 44 6
111 53 102 20 -4 23 0 23 24 0 22 5 29 20 29 19 0 20 -7 20 -89z m-1053 31
c32 -20 32 -94 0 -114 -38 -24 -97 11 -97 57 0 46 59 81 97 57z m211 -4 c5 -7
12 -36 13 -65 l4 -51 -49 1 c-33 1 -52 7 -59 18 -15 24 -2 46 32 54 49 11 51
28 2 20 -45 -7 -49 -4 -25 19 19 19 67 21 82 4z m142 2 c7 -5 15 -33 18 -64 4
-52 3 -56 -17 -56 -19 0 -21 6 -21 51 0 47 -2 50 -22 47 -20 -3 -23 -10 -26
-50 -2 -34 -7 -48 -18 -48 -11 0 -14 15 -14 63 l0 64 43 0 c24 1 50 -3 57 -7z
m138 -2 c5 -7 12 -36 13 -65 l4 -51 -49 1 c-33 1 -52 7 -59 18 -15 24 -2 46
32 54 49 11 51 28 2 20 -45 -7 -49 -4 -25 19 19 19 67 21 82 4z m312 -53 c0
-51 -3 -65 -15 -65 -12 0 -15 14 -15 65 0 51 3 65 15 65 12 0 15 -14 15 -65z
m70 53 c0 -9 3 -9 12 0 16 16 28 15 28 -1 0 -7 -9 -18 -20 -25 -15 -9 -20 -23
-20 -52 0 -29 -4 -40 -15 -40 -12 0 -15 14 -15 65 0 51 3 65 15 65 8 0 15 -5
15 -12z m240 0 c0 -9 3 -9 12 0 16 16 28 15 28 -1 0 -7 -9 -18 -20 -25 -15 -9
-20 -23 -20 -52 0 -29 -4 -40 -15 -40 -12 0 -15 14 -15 65 0 51 3 65 15 65 8
0 15 -5 15 -12z m158 -4 c60 -42 -13 -146 -75 -106 -32 20 -32 94 0 114 19 12
51 9 75 -8z m157 -7 c19 -28 19 -57 -1 -86 -13 -18 -23 -22 -45 -17 -27 5 -29
3 -29 -24 0 -20 -5 -30 -15 -30 -12 0 -15 16 -15 88 l0 89 45 1 c35 0 48 -5
60 -21z m-493 -552 l-3 -145 -590 -2 -589 -3 0 148 0 147 593 0 592 0 -3 -145z
m-1179 -372 c3 -10 8 -31 12 -48 8 -30 8 -30 19 15 14 53 27 55 40 6 12 -47
22 -45 30 4 3 22 10 40 15 40 5 0 2 -27 -6 -60 -9 -33 -19 -60 -23 -60 -4 0
-13 21 -20 48 l-13 47 -14 -47 c-8 -27 -18 -48 -22 -48 -5 0 -15 27 -24 60 -8
33 -11 60 -7 60 5 0 11 -8 13 -17z m234 -75 c-2 -18 -4 -4 -4 32 0 36 2 50 4
33 2 -18 2 -48 0 -65z m40 0 c-2 -18 -4 -4 -4 32 0 36 2 50 4 33 2 -18 2 -48
0 -65z m913 34 c0 -52 -2 -58 -22 -59 -29 -3 -48 14 -48 42 0 27 24 49 45 41
10 -4 15 1 15 14 0 11 2 20 5 20 3 0 5 -26 5 -58z m134 52 c9 -3 16 -13 16
-21 0 -12 -2 -12 -16 1 -8 9 -19 16 -24 16 -15 0 -40 -31 -40 -50 0 -19 25
-50 40 -50 5 0 16 7 25 16 9 9 18 14 21 11 9 -8 -27 -37 -46 -37 -27 0 -50 27
-50 60 0 46 33 70 74 54z m281 -29 c0 -26 -4 -30 -32 -33 -26 -3 -33 -8 -36
-30 -2 -15 -5 1 -6 36 l-1 63 38 -3 c34 -3 37 -6 37 -33z m205 -8 l25 -42 3
43 c5 64 22 50 22 -18 0 -33 -4 -60 -10 -60 -5 0 -22 21 -37 48 l-28 47 -6
-50 -6 -50 -1 63 c-1 34 1 62 6 62 4 0 18 -19 32 -43z m268 12 c2 -19 -4 -31
-22 -43 -33 -21 -33 -34 2 -39 22 -3 20 -4 -10 -6 -47 -1 -50 19 -8 49 17 12
30 28 30 35 0 23 -22 29 -36 10 -8 -10 -17 -16 -20 -12 -12 12 19 38 40 35 14
-2 22 -12 24 -29z m191 13 c5 -10 6 -24 1 -31 -4 -8 -4 -27 0 -42 5 -16 5 -29
0 -29 -5 0 -10 10 -12 23 -2 15 -11 23 -30 25 -22 3 -27 -1 -31 -25 -2 -15 -5
0 -6 35 l-1 62 35 0 c23 0 37 -6 44 -18z m87 -12 c1 -14 5 -33 9 -43 10 -23
-12 -49 -38 -45 -11 2 -23 10 -25 18 -5 13 -3 13 11 2 9 -8 21 -11 27 -7 16
10 12 33 -7 44 -17 10 -17 10 0 11 19 0 23 25 5 36 -6 4 -17 -1 -25 -11 -10
-15 -13 -16 -13 -4 0 40 54 38 56 -1z m180 -8 c1 -18 4 -35 7 -38 11 -11 -13
-44 -32 -44 -26 0 -45 26 -36 47 5 10 7 24 6 32 -4 26 9 42 31 39 18 -2 23
-10 24 -36z m72 -24 c-1 -50 -2 -54 -5 -20 -3 30 -9 42 -20 42 -14 0 -14 3 3
19 10 11 20 20 22 20 1 1 1 -27 0 -61z m167 30 c19 3 27 -1 34 -19 14 -38 -1
-64 -38 -65 l-31 -1 1 61 c1 34 4 52 6 40 3 -16 10 -20 28 -16z m75 -22 c0
-52 1 -55 28 -59 22 -3 20 -4 -10 -6 l-38 -1 0 60 c0 33 4 60 10 60 6 0 10
-24 10 -54z m156 6 c1 -23 4 -49 8 -57 3 -8 1 -15 -4 -15 -5 0 -10 10 -12 23
-2 15 -11 23 -30 25 -22 3 -27 -1 -31 -25 -2 -15 -5 0 -6 35 l-1 63 38 -3 c36
-3 37 -4 38 -46z m97 41 c-20 -4 -23 -11 -25 -61 l-1 -57 -6 54 c-5 42 -11 56
-26 62 -13 5 -4 7 30 7 28 0 40 -3 28 -5z m100 0 c-21 -4 -23 -10 -23 -59 0
-30 -4 -54 -10 -54 -5 0 -10 24 -10 54 0 44 -4 55 -17 59 -10 3 5 5 32 4 28 0
40 -2 28 -4z m91 -18 c10 15 20 24 23 22 2 -3 -3 -17 -13 -31 -9 -15 -20 -41
-24 -59 -7 -28 -8 -29 -9 -7 -1 14 -10 39 -21 55 -27 41 -25 56 3 21 l23 -28
18 27z m326 -20 c7 -25 16 -45 20 -45 4 0 13 20 19 45 6 25 15 45 20 45 6 0 1
-27 -11 -60 -11 -33 -24 -60 -28 -60 -4 0 -17 27 -28 60 -12 33 -17 60 -13 60
5 0 14 -20 21 -45z m228 33 c15 -15 16 -63 2 -89 -12 -20 -45 -26 -55 -8 -11
16 5 25 16 9 8 -13 12 -12 25 5 14 19 13 20 -13 25 -20 4 -29 12 -31 29 -5 35
31 54 56 29z m120 -20 c21 -44 -2 -82 -51 -86 l-37 -3 0 61 0 61 37 -3 c30 -2
41 -9 51 -30z m112 26 c0 -3 -16 -26 -36 -52 l-36 -47 39 -6 38 -6 -47 -2
c-27 0 -48 2 -48 5 0 4 16 28 35 55 l36 48 -38 4 c-35 3 -35 4 10 5 26 1 47
-1 47 -4z m153 -107 c31 -4 31 -4 -5 -5 l-38 -2 2 63 2 62 3 -57 c4 -56 5 -57
36 -61z m94 101 c13 -22 12 -87 -2 -98 -8 -7 -23 -9 -34 -5 -36 11 -23 115 15
115 7 0 16 -6 21 -12z m121 0 c21 -21 13 -29 -12 -13 -27 18 -53 11 -61 -16
-14 -44 28 -85 60 -59 20 16 19 28 -2 33 -14 4 -12 5 5 6 17 1 22 -4 22 -23 0
-22 -21 -35 -57 -36 -21 0 -43 31 -43 60 0 49 56 80 88 48z m80 5 c-34 -5 -37
-30 -5 -35 32 -4 38 -63 6 -73 -14 -5 -26 -1 -38 11 -15 17 -15 17 1 5 25 -18
50 -6 46 21 -2 18 -9 23 -31 21 -22 -2 -27 2 -23 13 3 9 6 22 6 30 0 9 10 14
33 13 30 -2 30 -2 5 -6z m242 -2 c-49 -8 -55 -41 -8 -42 l33 -1 -30 -7 c-23
-5 -31 -13 -36 -36 -5 -22 -7 -12 -8 33 l-1 62 43 -1 42 -2 -35 -6z m108 -22
c2 -19 -4 -31 -22 -43 -33 -21 -33 -34 2 -39 22 -3 20 -4 -10 -6 -47 -1 -50
19 -8 49 17 12 30 28 30 35 0 23 -22 29 -36 10 -8 -10 -17 -16 -20 -12 -12 12
19 38 40 35 14 -2 22 -12 24 -29z m140 19 c7 -7 12 -28 12 -48 0 -45 -15 -60
-57 -60 l-33 0 0 60 0 60 33 0 c18 0 38 -5 45 -12z m100 -19 c2 -19 -4 -31
-22 -43 -33 -21 -33 -34 2 -39 22 -3 20 -4 -10 -6 -47 -1 -50 19 -8 49 17 12
30 28 30 35 0 23 -22 29 -36 10 -8 -10 -17 -16 -20 -12 -12 12 19 38 40 35 14
-2 22 -12 24 -29z m80 19 c15 -15 16 -63 2 -89 -12 -20 -45 -26 -55 -8 -11 16
5 25 16 9 8 -13 12 -12 25 5 14 19 13 20 -13 25 -20 4 -29 12 -31 29 -5 35 31
54 56 29z m85 5 c-25 -3 -33 -9 -33 -24 0 -14 8 -19 33 -21 l32 -1 -32 -4
c-27 -4 -33 -9 -33 -28 0 -20 6 -24 38 -28 34 -3 33 -4 -10 -5 l-48 -2 0 60 0
60 43 -2 c36 -1 38 -2 10 -5z m-4874 -31 c-13 -5 -11 -56 4 -71 10 -11 9 -13
-3 -9 -9 3 -17 21 -20 45 -8 51 -3 66 15 50 7 -7 9 -13 4 -15z m604 -31 c1
-28 -1 -51 -4 -51 -8 0 -16 84 -11 100 8 22 14 1 15 -49z m1427 24 c0 -21 5
-35 13 -35 8 0 9 -3 1 -8 -6 -4 -14 -14 -17 -22 -4 -12 -6 -11 -6 3 -1 11 -9
17 -26 17 -31 0 -31 2 -2 45 28 44 37 44 37 0z m938 -22 c-1 -50 -2 -52 -5
-15 -2 23 -9 42 -15 42 -7 0 -6 6 2 15 7 8 14 15 16 15 2 0 3 -26 2 -57z m372
2 c0 -30 -4 -55 -10 -55 -5 0 -10 18 -10 40 0 23 -5 40 -11 40 -8 0 -8 5 1 15
22 27 30 16 30 -40z m-3552 23 c7 -7 12 -26 12 -43 0 -28 -3 -31 -32 -30 -26
0 -33 4 -33 20 0 13 8 21 23 23 23 4 29 16 12 27 -6 4 -17 1 -25 -5 -8 -7 -15
-8 -15 -3 0 24 38 31 58 11z m160 0 c21 -21 13 -38 -18 -38 -16 0 -30 -4 -30
-9 0 -18 19 -22 42 -10 22 11 22 10 7 -6 -24 -25 -59 -11 -59 24 0 28 16 51
35 51 6 0 16 -5 23 -12z m180 -8 c5 -13 3 -13 -11 -2 -21 18 -37 7 -37 -23 0
-30 16 -41 37 -23 14 11 16 11 11 -2 -2 -8 -14 -16 -26 -18 -30 -5 -49 36 -32
67 13 25 50 25 58 1z m80 8 c7 -7 12 -21 12 -33 0 -46 -53 -62 -71 -21 -21 45
26 87 59 54z m88 -38 l2 -45 -7 40 c-4 26 -11 40 -21 40 -10 0 -17 -14 -21
-40 l-6 -40 -2 46 c-1 44 0 46 27 45 25 -1 27 -4 28 -46z m90 0 l2 -45 -7 40
c-4 26 -11 40 -21 40 -10 0 -17 -14 -21 -40 l-6 -40 -2 46 c-1 44 0 46 27 45
25 -1 27 -4 28 -46z m95 23 c7 -21 5 -23 -21 -23 -30 0 -40 -13 -20 -25 6 -4
18 -1 27 7 14 11 15 11 11 -2 -6 -20 -48 -19 -61 2 -8 12 -7 24 1 43 15 32 51
31 63 -2z m79 12 c14 -17 0 -21 -16 -5 -16 16 -37 -14 -29 -40 6 -20 35 -29
35 -10 0 6 5 10 12 10 8 0 6 -7 -5 -17 -33 -33 -77 26 -47 63 16 18 34 18 50
-1z m128 3 c21 -21 13 -38 -18 -38 -30 0 -40 -13 -20 -25 6 -4 18 -1 27 7 14
11 16 11 11 -2 -8 -26 -47 -24 -57 2 -17 47 24 89 57 56z m142 2 c0 -5 -2 -10
-4 -10 -3 0 -8 5 -11 10 -3 6 -1 10 4 10 6 0 11 -4 11 -10z m190 7 c0 -2 -11
-19 -25 -38 l-26 -34 28 -6 c26 -6 25 -7 -9 -8 -21 0 -38 2 -38 5 0 3 12 20
26 39 l25 34 -28 4 c-23 3 -22 4 10 6 20 0 37 0 37 -2z m36 -14 c12 -17 13
-17 19 0 4 9 11 17 17 17 5 0 2 -10 -6 -22 -14 -20 -14 -24 -1 -45 18 -27 8
-31 -11 -5 -12 16 -13 16 -19 0 -4 -10 -12 -18 -17 -18 -6 0 -3 11 5 24 14 21
14 26 1 45 -18 25 -7 29 12 4z m270 -33 l2 -45 -7 39 c-7 45 -28 59 -35 24 -3
-13 -7 -32 -9 -43 -3 -11 -5 -3 -6 17 -1 35 -15 57 -28 44 -3 -3 -9 -23 -13
-43 l-8 -38 -1 46 -1 46 53 -1 52 -1 1 -45z m172 33 c-6 -7 -14 -28 -18 -46
-8 -31 -8 -30 -9 13 -1 39 2 46 18 46 15 0 17 -3 9 -13z m80 -3 c5 -13 3 -13
-12 -1 -12 10 -20 11 -28 3 -8 -8 -5 -14 14 -21 34 -13 41 -26 23 -41 -18 -15
-47 -10 -53 10 -5 13 -3 13 12 1 12 -10 20 -11 28 -3 8 8 4 14 -15 21 -26 10
-35 30 -20 45 12 11 46 2 51 -14z m155 -12 c5 17 13 32 18 32 4 0 1 -20 -8
-45 -8 -25 -18 -45 -22 -45 -8 0 -32 69 -30 86 0 5 8 -7 16 -26 l16 -35 10 33z
m577 -14 l6 -41 -36 1 c-28 1 -35 5 -35 21 0 13 8 21 23 23 12 2 22 10 22 18
0 11 -6 13 -21 9 -15 -5 -19 -4 -14 5 4 6 17 10 28 8 17 -2 23 -12 27 -44z
m754 40 c9 -3 16 -11 16 -16 0 -6 -6 -5 -15 2 -12 10 -18 10 -30 0 -8 -7 -15
-18 -15 -25 0 -7 7 -18 15 -25 12 -10 18 -10 30 0 9 8 15 8 15 2 0 -17 -39
-25 -55 -12 -18 15 -19 52 -3 68 14 14 20 14 42 6z m97 -40 l5 -42 -35 2 c-25
1 -37 6 -39 19 -2 9 4 19 12 22 9 3 24 7 33 10 12 4 13 9 5 17 -8 8 -15 8 -27
-2 -8 -7 -15 -8 -15 -3 0 16 13 24 35 21 15 -2 21 -13 26 -44z m539 6 c0 -59
33 -48 43 15 3 23 4 19 6 -15 1 -43 -1 -46 -26 -48 -15 -1 -30 4 -35 10 -11
18 -10 78 2 78 6 0 10 -18 10 -40z m490 26 c-6 -6 -10 -25 -10 -43 0 -18 -4
-33 -10 -33 -5 0 -10 20 -10 44 0 39 3 45 20 43 13 -1 16 -5 10 -11z m91 -7
c16 -31 -4 -73 -31 -66 -15 4 -20 0 -20 -14 0 -10 -4 -19 -10 -19 -6 0 -10 27
-10 60 0 60 0 60 30 60 20 0 33 -7 41 -21z m216 -46 c-2 -16 -4 -5 -4 22 0 28
2 40 4 28 2 -13 2 -35 0 -50z m-3667 -13 c0 -5 -5 -10 -11 -10 -5 0 -7 5 -4
10 3 6 8 10 11 10 2 0 4 -4 4 -10z m4662 -395 l-3 -145 -1870 -2 -1869 -3 0
148 0 147 1873 0 1872 0 -3 -145z m-3812 -35 l0 -100 -1040 0 -1040 0 0 100 0
100 1040 0 1040 0 0 -100z m-2026 -326 c9 -3 16 -13 16 -21 0 -12 -2 -12 -16
1 -8 9 -19 16 -24 16 -15 0 -40 -31 -40 -50 0 -19 25 -50 40 -50 5 0 16 7 25
16 9 9 18 14 21 11 9 -8 -27 -37 -46 -37 -44 0 -68 71 -34 104 16 17 33 20 58
10z m236 -54 c0 -33 -4 -60 -10 -60 -6 0 -10 27 -10 60 0 33 4 60 10 60 6 0
10 -27 10 -60z m90 3 c0 -57 0 -58 -30 -60 -24 -2 -33 3 -41 21 -15 32 5 70
32 63 14 -4 19 0 19 14 0 10 5 19 10 19 6 0 10 -26 10 -57z m456 27 c1 -14 5
-33 9 -43 10 -23 -12 -49 -38 -45 -11 2 -23 10 -25 18 -5 13 -3 13 11 2 9 -8
21 -11 27 -7 16 10 12 33 -7 44 -17 10 -17 10 0 11 19 0 23 25 5 36 -6 4 -17
-1 -25 -11 -10 -15 -13 -16 -13 -4 0 40 54 38 56 -1z m122 23 c-34 -5 -37 -30
-5 -35 32 -4 38 -63 6 -73 -14 -5 -26 -1 -38 11 -15 17 -15 17 1 5 25 -18 50
-6 46 21 -2 18 -9 23 -31 21 -22 -2 -27 2 -23 13 3 9 6 22 6 30 0 9 10 14 33
13 30 -2 30 -2 5 -6z m99 -5 c15 -21 10 -90 -8 -101 -21 -13 -49 -2 -49 20 0
15 1 15 14 -2 12 -17 16 -17 30 -6 15 13 15 15 0 32 -10 11 -12 19 -6 19 15 0
15 27 0 36 -6 4 -17 -1 -25 -11 -10 -15 -13 -16 -13 -4 0 9 3 19 7 22 11 11
40 8 50 -5z m-898 -40 c17 -46 -21 -86 -54 -58 -18 15 -19 52 -3 68 19 19 48
14 57 -10z m75 16 c25 -10 21 -71 -4 -79 -40 -13 -68 43 -38 73 14 14 20 14
42 6z m224 -6 c7 -7 12 -21 12 -33 0 -46 -53 -62 -71 -21 -21 45 26 87 59 54z
m41 -20 l9 -33 7 33 c4 17 11 32 16 32 5 0 13 -15 18 -32 l9 -33 7 33 c4 17
11 32 15 32 10 0 -8 -71 -20 -84 -5 -5 -13 6 -18 25 l-10 34 -7 -32 c-4 -18
-11 -33 -16 -33 -7 0 -29 62 -29 83 0 18 10 4 19 -25z m169 -15 c2 -26 -1 -43
-7 -43 -6 0 -11 18 -11 40 0 59 -33 48 -43 -15 -3 -22 -4 -18 -6 16 -1 46 -1
46 32 45 30 -1 32 -3 35 -43z m499 34 c-9 -7 -18 -28 -20 -47 -3 -31 -4 -30
-5 10 -2 40 1 46 19 47 19 2 19 0 6 -10z m81 1 c21 -21 13 -38 -18 -38 -30 0
-40 -13 -20 -25 6 -4 18 -1 27 7 14 11 16 11 11 -2 -8 -26 -47 -24 -57 2 -17
47 24 89 57 56z m134 -2 c11 -16 10 -76 -2 -76 -5 0 -10 18 -10 41 0 53 -23
48 -31 -7 -5 -34 -6 -35 -8 -9 -3 68 -36 71 -44 5 -3 -31 -4 -30 -5 11 l-2 45
48 1 c26 0 50 -5 54 -11z m86 2 c7 -7 12 -26 12 -43 0 -28 -3 -31 -32 -30 -26
0 -33 4 -33 20 0 13 8 21 23 23 23 4 29 16 12 27 -6 4 -17 1 -25 -5 -8 -7 -15
-8 -15 -3 0 24 38 31 58 11z m39 -55 c-2 -16 -4 -5 -4 22 0 28 2 40 4 28 2
-13 2 -35 0 -50z m89 17 l2 -45 -7 40 c-8 53 -35 55 -39 3 -4 -53 -22 -48 -22
6 0 44 0 44 33 43 31 -2 32 -4 33 -47z m44 5 c0 -25 -4 -45 -10 -45 -5 0 -10
20 -10 45 0 25 5 45 10 45 6 0 10 -20 10 -45z m76 -5 l2 -45 -7 39 c-7 45 -28
59 -35 24 -3 -13 -7 -32 -9 -43 -3 -11 -5 1 -6 26 -1 44 0 46 27 45 25 -1 27
-4 28 -46z m92 -10 c-2 -44 -7 -55 -22 -58 -10 -2 -22 0 -27 5 -6 6 -1 9 12 9
12 -1 24 4 26 11 3 7 -3 9 -16 6 -15 -4 -24 2 -32 20 -16 35 3 67 37 65 24 -2
25 -5 22 -58z"/>
<path d="M3080 5185 l0 -115 51 0 c43 0 55 5 80 29 25 26 29 37 29 86 0 49 -4
60 -29 86 -25 24 -37 29 -80 29 l-51 0 0 -115z"/>
<path d="M2633 5139 c-48 -11 -67 -30 -58 -59 8 -25 66 -28 89 -4 13 12 24 78
14 73 -2 -1 -22 -5 -45 -10z"/>
<path d="M3595 5210 c-12 -13 -18 -36 -18 -65 0 -77 63 -115 99 -60 51 77 -22
190 -81 125z"/>
<path d="M1681 4341 c-8 -5 -14 -24 -14 -41 0 -17 6 -36 14 -41 21 -13 55 -11
68 4 14 18 2 30 -15 16 -19 -16 -44 -4 -44 21 0 29 20 33 63 12 34 -16 36 -20
23 -31 -30 -25 -16 -31 58 -29 68 1 73 3 63 19 -8 13 -8 21 1 31 10 12 0 15
-60 16 -47 2 -77 7 -88 17 -19 17 -48 19 -69 6z m166 -65 c-4 -9 -13 -12 -27
-9 -20 5 -20 6 -4 25 19 20 41 10 31 -16z"/>
<path d="M1920 4301 c0 -28 5 -51 10 -51 6 0 10 6 10 14 0 8 12 17 26 20 20 5
25 12 22 34 -2 22 -9 28 -35 30 l-33 3 0 -50z m48 17 c-6 -18 -28 -21 -28 -4
0 9 7 16 16 16 9 0 14 -5 12 -12z"/>
<path d="M2070 4300 c0 -50 0 -50 33 -50 40 0 57 15 57 50 0 35 -17 50 -57 50
-33 0 -33 0 -33 -50z m65 0 c0 -16 -6 -26 -17 -28 -14 -3 -18 3 -18 28 0 25 4
31 18 28 11 -2 17 -12 17 -28z"/>
<path d="M2174 4335 c-9 -22 2 -30 20 -16 25 21 26 -5 1 -29 -34 -32 -31 -40
10 -40 19 0 35 5 35 10 0 6 -7 10 -17 10 -15 0 -15 2 1 19 10 11 16 28 14 38
-4 24 -56 31 -64 8z"/>
<path d="M2260 4335 c-7 -9 -9 -22 -5 -32 5 -10 9 -25 9 -33 1 -19 33 -25 51
-10 18 15 20 61 3 78 -16 16 -43 15 -58 -3z m40 -20 c0 -8 -4 -15 -10 -15 -5
0 -10 7 -10 15 0 8 5 15 10 15 6 0 10 -7 10 -15z m5 -35 c-3 -5 -12 -10 -18
-10 -7 0 -6 4 3 10 19 12 23 12 15 0z"/>
<path d="M2340 4300 l0 -50 35 0 c38 0 50 20 13 21 -22 0 -22 1 2 11 25 11 25
11 3 15 -28 5 -30 33 -3 33 11 0 20 5 20 10 0 6 -16 10 -35 10 l-35 0 0 -50z"/>
<path d="M2000 4260 c0 -5 7 -10 15 -10 8 0 15 5 15 10 0 6 -7 10 -15 10 -8 0
-15 -4 -15 -10z"/>
<path d="M2040 4260 c0 -5 5 -10 10 -10 6 0 10 5 10 10 0 6 -4 10 -10 10 -5 0
-10 -4 -10 -10z"/>
<path d="M3150 4300 c0 -49 1 -50 29 -50 20 0 35 8 45 22 l16 22 0 -22 c0 -13
6 -22 15 -22 11 0 15 11 15 36 0 30 -3 36 -18 32 -12 -3 -24 2 -31 13 -7 12
-23 19 -41 19 -29 0 -30 -1 -30 -50z m55 0 c0 -16 -6 -26 -17 -28 -14 -3 -18
3 -18 28 0 25 4 31 18 28 11 -2 17 -12 17 -28z"/>
<path d="M3240 4340 c0 -5 7 -10 15 -10 8 0 15 5 15 10 0 6 -7 10 -15 10 -8 0
-15 -4 -15 -10z"/>
<path d="M3873 4325 c-8 -9 -9 -16 -3 -20 6 -3 10 -17 10 -31 0 -17 5 -24 20
-24 11 0 20 5 20 10 0 6 -4 10 -10 10 -14 0 -12 28 2 32 9 3 8 9 -4 21 -20 20
-20 20 -35 2z"/>
<path d="M3287 4313 c-3 -5 -4 -19 -3 -33 1 -18 7 -26 25 -28 31 -5 46 19 24
36 -10 7 -12 12 -4 12 7 0 9 5 6 10 -7 12 -42 13 -48 3z"/>
<path d="M3361 4302 c-7 -14 -7 -24 2 -37 15 -20 58 -17 65 4 3 10 -2 12 -22
7 -20 -5 -26 -3 -26 9 0 12 6 14 26 9 20 -5 25 -3 22 7 -7 23 -55 23 -67 1z"/>
<path d="M3444 4306 c-12 -31 0 -51 30 -51 36 0 56 26 37 49 -17 20 -60 21
-67 2z m46 -21 c0 -8 -4 -15 -10 -15 -5 0 -10 7 -10 15 0 8 5 15 10 15 6 0 10
-7 10 -15z"/>
<path d="M3530 4286 c0 -20 5 -36 10 -36 6 0 10 12 10 26 0 31 23 28 28 -4 5
-35 24 -25 20 11 -3 28 -7 32 -35 35 -32 3 -33 2 -33 -32z"/>
<path d="M3610 4286 c0 -25 4 -36 15 -36 9 0 15 9 15 25 0 14 5 25 10 25 6 0
10 -11 10 -25 0 -16 6 -25 16 -25 11 0 14 8 12 33 -3 29 -6 32 -40 35 -37 3
-38 3 -38 -32z"/>
<path d="M3704 4306 c-12 -31 0 -51 31 -51 27 0 30 3 30 30 0 25 -4 30 -28 33
-17 2 -29 -2 -33 -12z m43 -12 c-3 -3 -12 -4 -19 -1 -8 3 -5 6 6 6 11 1 17 -2
13 -5z"/>
<path d="M3789 4304 c-9 -11 -10 -20 -2 -32 14 -23 59 -28 67 -6 5 13 2 15
-19 10 -19 -5 -25 -2 -25 9 0 11 6 14 25 9 20 -5 24 -3 19 10 -8 21 -48 21
-65 0z"/>
<path d="M4927 3233 c-4 -3 -7 -28 -7 -55 0 -55 15 -68 56 -50 20 10 24 19 24
51 0 30 -5 43 -19 51 -23 12 -45 13 -54 3z"/>
<path d="M3333 3193 c-24 -9 -13 -23 17 -23 32 0 40 14 14 24 -9 3 -16 6 -17
5 -1 0 -8 -3 -14 -6z"/>
<path d="M3572 3188 c-27 -27 -2 -75 32 -62 21 8 21 60 0 68 -20 8 -18 8 -32
-6z"/>
<path d="M4332 3188 c-27 -27 -2 -75 32 -62 21 8 21 60 0 68 -20 8 -18 8 -32
-6z"/>
<path d="M5172 3188 c-28 -28 3 -83 33 -58 8 7 15 20 15 29 0 17 -18 41 -30
41 -3 0 -11 -5 -18 -12z"/>
<path d="M6022 3188 c-27 -27 -2 -75 32 -62 21 8 21 60 0 68 -20 8 -18 8 -32
-6z"/>
<path d="M6960 3185 c-11 -13 -8 -15 20 -15 21 0 30 4 28 13 -7 18 -33 20 -48
2z"/>
<path d="M2050 2621 c0 -5 -3 -16 -6 -25 -4 -12 0 -16 16 -16 16 0 20 4 16 16
-3 9 -6 20 -6 25 0 5 -4 9 -10 9 -5 0 -10 -4 -10 -9z"/>
<path d="M2354 2596 c-10 -26 0 -51 21 -51 16 0 20 7 20 30 0 33 -30 49 -41
21z"/>
<path d="M1326 2592 c-10 -30 4 -53 28 -50 31 4 30 62 -1 66 -14 2 -23 -3 -27
-16z"/>
<path d="M1535 2560 c-8 -12 20 -24 35 -15 5 3 10 10 10 16 0 12 -37 12 -45
-1z"/>
<path d="M1815 2560 c-8 -12 20 -24 35 -15 5 3 10 10 10 16 0 12 -37 12 -45
-1z"/>
<path d="M2594 2596 c-10 -26 1 -51 22 -54 24 -3 38 20 29 49 -7 22 -43 25
-51 5z"/>
<path d="M2744 2596 c-10 -26 1 -51 22 -54 24 -3 38 20 29 49 -7 22 -43 25
-51 5z"/>
<path d="M1410 2060 l0 -60 38 1 c30 2 32 3 10 6 -27 4 -28 7 -28 59 0 30 -4
54 -10 54 -6 0 -10 -27 -10 -60z"/>
<path d="M1640 2060 c0 -66 17 -83 22 -22 2 25 8 37 18 37 10 0 16 -12 18 -37
4 -44 22 -52 22 -10 0 37 -22 67 -44 59 -11 -5 -16 -1 -16 13 0 11 -4 20 -10
20 -6 0 -10 -27 -10 -60z"/>
<path d="M1743 2106 c-6 -10 -9 -26 -7 -35 12 -66 15 -71 37 -71 20 1 20 2 5
11 -11 6 -18 22 -18 39 0 19 6 30 18 33 15 4 15 5 0 6 -9 0 -18 9 -20 19 -3
16 -5 16 -15 -2z"/>
<path d="M1862 2058 l1 -63 6 50 6 50 13 -37 c8 -21 17 -38 22 -38 4 0 15 17
23 38 l16 37 0 -47 c1 -27 6 -48 11 -48 6 0 10 27 10 61 0 51 -3 60 -17 57 -9
-2 -22 -19 -28 -38 l-12 -35 -16 38 c-24 56 -37 46 -35 -25z"/>
<path d="M2150 2102 c0 -13 -8 -18 -27 -17 -26 0 -28 -3 -28 -40 0 -39 1 -40
38 -42 l37 -1 0 59 c0 33 -4 59 -10 59 -5 0 -10 -8 -10 -18z m-2 -66 c-4 -28
-35 -33 -43 -6 -9 29 12 55 32 38 8 -6 13 -21 11 -32z"/>
<path d="M1503 2045 c0 -27 2 -38 4 -22 2 15 2 37 0 50 -2 12 -4 0 -4 -28z"/>
<path d="M1544 2076 c-3 -8 -4 -27 -2 -43 2 -23 8 -28 31 -28 15 1 27 -2 27
-6 0 -10 -30 -20 -41 -13 -5 3 -9 0 -9 -5 0 -6 11 -11 25 -11 30 0 45 26 45
78 0 38 -1 39 -35 40 -22 1 -38 -4 -41 -12z m50 -44 c-13 -20 -25 -20 -38 1
-7 10 -5 21 4 32 12 15 15 15 29 0 12 -12 13 -19 5 -33z"/>
<path d="M2000 2076 c-28 -35 11 -93 48 -70 35 22 22 84 -18 84 -10 0 -23 -7
-30 -14z m45 -32 c0 -19 -5 -29 -15 -29 -16 0 -25 28 -16 51 10 25 31 10 31
-22z"/>
<path d="M2202 2078 c-29 -29 -7 -78 34 -78 13 0 25 4 29 9 3 6 -7 9 -21 8
-15 -1 -29 4 -31 11 -3 8 6 12 26 12 19 0 31 5 31 13 0 18 -21 37 -40 37 -9 0
-21 -5 -28 -12z m46 -16 c2 -7 -6 -12 -17 -12 -21 0 -27 11 -14 24 9 9 26 2
31 -12z"/>
<path d="M1254 2067 c-2 -7 2 -26 9 -41 14 -25 15 -26 20 -6 3 12 15 24 27 27
20 5 20 6 -6 19 -33 17 -43 18 -50 1z"/>
<path d="M1218 2053 c7 -3 16 -2 19 1 4 3 -2 6 -13 5 -11 0 -14 -3 -6 -6z"/>
<path d="M1230 2019 c0 -5 5 -7 10 -4 6 3 10 8 10 11 0 2 -4 4 -10 4 -5 0 -10
-5 -10 -11z"/>
<path d="M2280 1654 c-10 -11 -11 -20 -3 -32 17 -27 38 -20 38 12 0 34 -16 44
-35 20z"/>
<path d="M2684 1685 c-8 -20 4 -35 27 -35 24 0 37 29 18 41 -21 13 -39 11 -45
-6z"/>
<path d="M3340 1675 c0 -23 4 -26 28 -23 19 2 27 9 27 23 0 14 -8 21 -27 23
-24 3 -28 0 -28 -23z"/>
<path d="M3634 1689 c-10 -17 13 -36 27 -22 12 12 4 33 -11 33 -5 0 -12 -5
-16 -11z"/>
<path d="M3633 1634 c-8 -21 13 -42 28 -27 13 13 5 43 -11 43 -6 0 -13 -7 -17
-16z"/>
<path d="M3901 1652 c-13 -25 11 -63 29 -46 14 14 9 56 -7 61 -6 2 -16 -4 -22
-15z"/>
<path d="M4080 1675 c0 -23 4 -26 28 -23 19 2 27 9 27 23 0 14 -8 21 -27 23
-24 3 -28 0 -28 -23z"/>
<path d="M4944 1685 c-7 -18 3 -35 21 -35 18 0 26 25 12 39 -15 15 -27 14 -33
-4z"/>
<path d="M5040 1650 c0 -41 3 -50 18 -50 25 0 42 20 42 50 0 30 -17 50 -42 50
-15 0 -18 -9 -18 -50z"/>
<path d="M5426 1685 c-3 -9 1 -18 10 -22 19 -7 28 2 21 22 -8 19 -23 19 -31 0z"/>
<path d="M5424 1635 c-4 -9 -2 -21 4 -27 15 -15 44 -1 40 19 -4 23 -36 29 -44
8z"/>
<path d="M6100 1650 c0 -41 3 -50 18 -50 42 0 60 70 23 90 -34 18 -41 12 -41
-40z"/>
<path d="M6294 1685 c-7 -18 3 -35 21 -35 18 0 26 25 12 39 -15 15 -27 14 -33
-4z"/>
<path d="M3545 1650 c-18 -19 -17 -20 3 -20 15 0 22 6 22 20 0 11 -2 20 -3 20
-2 0 -12 -9 -22 -20z"/>
<path d="M1295 1621 c-3 -5 -1 -12 5 -16 12 -7 30 2 30 16 0 12 -27 12 -35 0z"/>
<path d="M1457 1663 c-14 -13 -6 -23 19 -23 22 0 25 2 14 15 -14 16 -23 19
-33 8z"/>
<path d="M1717 1663 c-11 -11 -8 -51 5 -59 18 -11 39 25 27 47 -10 20 -21 24
-32 12z"/>
<path d="M1987 1664 c-13 -13 -7 -24 14 -24 11 0 19 5 17 12 -5 14 -22 21 -31
12z"/>
<path d="M2197 1664 c-13 -13 -7 -24 14 -24 11 0 19 5 17 12 -5 14 -22 21 -31
12z"/>
<path d="M3805 1621 c-10 -18 17 -23 33 -7 15 15 15 16 -5 16 -12 0 -24 -4
-28 -9z"/>
<path d="M4660 1614 c0 -9 7 -14 17 -12 25 5 28 28 4 28 -12 0 -21 -6 -21 -16z"/>
<path d="M5784 1656 c-9 -23 0 -51 16 -51 10 0 15 10 15 29 0 32 -21 47 -31
22z"/>
<path d="M1474 796 c-9 -23 0 -51 16 -51 10 0 15 10 15 29 0 32 -21 47 -31 22z"/>
<path d="M1261 792 c-13 -25 11 -63 29 -46 14 14 9 56 -7 61 -6 2 -16 -4 -22
-15z"/>
<path d="M1350 794 c-10 -11 -11 -20 -3 -32 17 -27 38 -20 38 12 0 34 -16 44
-35 20z"/>
<path d="M1567 803 c-11 -11 -8 -51 5 -59 18 -11 39 25 27 47 -10 20 -21 24
-32 12z"/>
<path d="M2357 804 c-13 -13 -7 -24 14 -24 11 0 19 5 17 12 -5 14 -22 21 -31
12z"/>
<path d="M2575 761 c-3 -5 -1 -12 5 -16 12 -7 30 2 30 16 0 12 -27 12 -35 0z"/>
<path d="M2914 796 c-9 -23 0 -51 16 -51 10 0 15 10 15 29 0 32 -21 47 -31 22z"/>
</g>
</svg>
